<?xml version="1.0" encoding="UTF-8"?>
<svg width="400" height="400" version="1.1" viewBox="0 0 105.83 105.83" xmlns="http://www.w3.org/2000/svg" xmlns:cc="http://creativecommons.org/ns#" xmlns:dc="http://purl.org/dc/elements/1.1/" xmlns:rdf="http://www.w3.org/1999/02/22-rdf-syntax-ns#">
 <metadata>
  <rdf:RDF>
   <cc:Work rdf:about="">
    <dc:format>image/svg+xml</dc:format>
    <dc:type rdf:resource="http://purl.org/dc/dcmitype/StillImage"/>
    <dc:title/>
   </cc:Work>
  </rdf:RDF>
 </metadata>
 <g transform="rotate(-45 52.917 52.917)">
  <g transform="rotate(180 52.917 52.917)">
   <g transform="rotate(225 52.917 52.917)">
    <g transform="rotate(-45 52.917 52.917)">
     <g transform="rotate(-45 52.917 52.917)">
      <g transform="rotate(-45 52.917 52.917)">
       <text fill="black" font-family="sans-serif" font-size="10.583px" letter-spacing="0px" word-spacing="0px" style="line-height:1.25;shape-inside:url(#rect4199);white-space:pre" xml:space="preserve"/>
       <g transform="translate(-18.127 3.8248)">
        <g transform="translate(.31654 .14343)">
         <g transform="rotate(-45 70.727 48.948)">
          <g transform="rotate(-45 70.727 48.948)">
           <g transform="rotate(-45 70.727 48.948)">
            <g transform="rotate(-45 70.727 48.948)">
             <g transform="rotate(-45 70.713 49.402)">
              <g>
               <circle transform="rotate(158.78)" cx="-48.459" cy="-71.477" r="52.917" fill="#4d4d4d" style="paint-order:fill markers stroke"/>
               <path d="m70.998 49.11-47.632 18.494c4.1291 10.493 12.287 21.538 27.028 28.264z" fill="#bf32b7"/>
               <path d="m70.998 49.11-20.604 46.758c11.312 5.1023 25.716 6.0574 39.098 0.87408z" fill="#dfdd48"/>
               <path d="m70.998 49.11 18.494 47.632c19.706-8.062 26.289-23.098 28.264-27.028z" fill="#390000"/>
               <path d="m70.998 49.11 46.758 20.604c7.9424-18.46 2.5255-36.395 0.87409-39.098z" fill="#7d03ff"/>
               <path d="m70.998 49.11 47.632-18.494c-6.856-16.304-17.46-23.889-27.028-28.264z" fill="#ff8203"/>
               <path d="m70.998 49.11-18.494-47.632c9.5088-3.4999 23.487-5.7026 39.098 0.87408z" fill="#36dc22"/>
               <path d="m70.998 49.11-46.758-20.604c5.81-13.352 17.001-22.594 28.264-27.028z" fill="#fff"/>
               <path d="m70.998 49.11-47.632 18.494c-4.8841-13.711-4.3981-26.62 0.87408-39.098z" fill="#0bace8"/>
               <circle transform="rotate(158.78)" cx="-48.459" cy="-71.477" r="3.5708" fill="#8a0" stroke="#004569" stroke-linecap="round" stroke-linejoin="round" stroke-width="1.7902" style="paint-order:fill markers stroke"/>
              </g>
              <g>
               <circle transform="rotate(158.78)" cx="-48.459" cy="-71.477" r="50.387" fill="none" opacity=".50633" stroke="#000" stroke-linecap="round" stroke-linejoin="round" stroke-width="3.1918" style="paint-order:fill markers stroke"/>
               <text transform="rotate(45)" x="70.254707" y="-55.316868" fill="#000000" font-family="sans-serif" font-size="4.6254px" letter-spacing="0px" stroke="#ffffff" stroke-width="1.346" word-spacing="0px" style="line-height:1.25" xml:space="preserve"><tspan x="70.254707" y="-55.316868" fill="#000000" font-family="'Lemon Tea'" stroke="#ffffff" stroke-width="1.346">GASTRONOMÍA</tspan></text>
               <text transform="rotate(45)" x="70.405159" y="-55.198818" fill="#000000" font-family="sans-serif" font-size="4.6254px" letter-spacing="0px" stroke-width=".34584" word-spacing="0px" style="line-height:1.25" xml:space="preserve"><tspan x="70.405159" y="-55.198818" fill="#000000" font-family="'Lemon Tea'" stroke-width=".34584">GASTRONOMÍA</tspan></text>
              </g>
              <g transform="rotate(-45 71.044 49.092)" fill="#000000" font-family="sans-serif" font-size="4.6254px" letter-spacing="0px" word-spacing="0px">
               <text transform="rotate(135)" x="-24.041836" y="-126.03936" stroke="#ffffff" stroke-width="1.346" style="line-height:1.25" xml:space="preserve"><tspan x="-24.041836" y="-126.03936" fill="#000000" font-family="'Lemon Tea'" stroke="#ffffff" stroke-width="1.346">HISTORIA</tspan></text>
               <text transform="rotate(135)" x="-23.891392" y="-125.92131" stroke-width=".34584" style="line-height:1.25" xml:space="preserve"><tspan x="-23.891392" y="-125.92131" fill="#000000" font-family="'Lemon Tea'" stroke-width=".34584">HISTORIA</tspan></text>
              </g>
              <g fill="#000000" font-family="sans-serif" font-size="4.6254px" letter-spacing="0px" word-spacing="0px">
               <text transform="rotate(135)" x="-24.551826" y="-126.19338" stroke="#ffffff" stroke-width="1.346" style="line-height:1.25" xml:space="preserve"><tspan x="-24.551826" y="-126.19338" fill="#000000" font-family="'Lemon Tea'" stroke="#ffffff" stroke-width="1.346">DEPORTES</tspan></text>
               <text transform="rotate(135)" x="-24.401382" y="-126.07533" stroke-width=".34584" style="line-height:1.25" xml:space="preserve"><tspan x="-24.401382" y="-126.07533" fill="#000000" font-family="'Lemon Tea'" stroke-width=".34584">DEPORTES</tspan></text>
              </g>
             </g>
             <g fill="#000000" font-family="sans-serif" font-size="4.6254px" letter-spacing="0px" word-spacing="0px">
              <text transform="rotate(135)" x="-24.551826" y="-126.19338" stroke="#ffffff" stroke-width="1.346" style="line-height:1.25" xml:space="preserve"><tspan x="-24.551826" y="-126.19338" fill="#000000" font-family="'Lemon Tea'" stroke="#ffffff" stroke-width="1.346">RELIGión</tspan></text>
              <text transform="rotate(135)" x="-24.401382" y="-126.07533" stroke-width=".34584" style="line-height:1.25" xml:space="preserve"><tspan x="-24.401382" y="-126.07533" fill="#000000" font-family="'Lemon Tea'" stroke-width=".34584">RELIGIÓN</tspan></text>
             </g>
            </g>
            <g transform="translate(-2.5365 5.0488)" fill="#000000" font-family="sans-serif" font-size="4.6254px" letter-spacing="0px" word-spacing="0px">
             <text transform="rotate(135)" x="-24.484436" y="-125.58895" stroke="#ffffff" stroke-width="1.346" style="line-height:1.25" xml:space="preserve"><tspan x="-24.484436" y="-125.58895" fill="#000000" font-family="'Lemon Tea'" stroke="#ffffff" stroke-width="1.346">CINE</tspan></text>
             <text transform="rotate(135)" x="-24.333992" y="-125.4709" stroke-width=".34584" style="line-height:1.25" xml:space="preserve"><tspan x="-24.333992" y="-125.4709" fill="#000000" font-family="'Lemon Tea'" stroke-width=".34584">CINE</tspan></text>
            </g>
           </g>
           <g transform="translate(2.9927 -3.8505)" fill="#000000" font-family="sans-serif" font-size="4.6254px" letter-spacing="0px" word-spacing="0px">
            <text transform="rotate(135)" x="-19.437384" y="-127.23045" stroke="#ffffff" stroke-width="1.346" style="line-height:1.25" xml:space="preserve"><tspan x="-19.437384" y="-127.23045" fill="#000000" font-family="'Lemon Tea'" stroke="#ffffff" stroke-width="1.346">POLÍTICA</tspan></text>
            <text transform="rotate(135)" x="-19.28694" y="-127.1124" stroke-width=".34584" style="line-height:1.25" xml:space="preserve"><tspan x="-19.28694" y="-127.1124" fill="#000000" font-family="'Lemon Tea'" stroke-width=".34584">POLÍTICA</tspan></text>
           </g>
          </g>
          <text transform="rotate(135)" x="-22.318605" y="-127.15216" fill="#000000" font-family="sans-serif" font-size="4.6254px" letter-spacing="0px" stroke-width=".34584" word-spacing="0px" style="line-height:1.25" xml:space="preserve"><tspan x="-22.318605" y="-127.15216" fill="#000000" font-family="'Lemon Tea'" stroke-width=".34584">CIENCIA</tspan></text>
         </g>
         <g transform="translate(.9997 -.37424)" fill="#000000" font-family="sans-serif" font-size="4.6254px" letter-spacing="0px" word-spacing="0px">
          <text transform="rotate(135)" x="-21.589708" y="-126.0362" stroke="#ffffff" stroke-width="1.346" style="line-height:1.25" xml:space="preserve"><tspan x="-21.589708" y="-126.0362" fill="#000000" font-family="'Lemon Tea'" stroke="#ffffff" stroke-width="1.346">MÚSICA</tspan></text>
          <text transform="rotate(135)" x="-21.589708" y="-126.0362" stroke-width=".34584" style="line-height:1.25" xml:space="preserve"><tspan x="-21.589708" y="-126.0362" fill="#000000" font-family="'Lemon Tea'" stroke-width=".34584">MÚSICA</tspan></text>
         </g>
        </g>
       </g>
      </g>
     </g>
    </g>
   </g>
  </g>
 </g>
</svg>
